Plot:
As a hurricane rages outside, the small but experienced crew of an oil drilling rig settles in to ride out the storm. Isolated on the rig, their calm is short lived when a crew member goes missing and an extensive search proves futile. Slowly, they discover that a deadly creature is stalking the skeleton crew, eliminating them one by one. Surrounded by nothing but raging ocean, their communication severed and no way off the rig, the roughnecks try to survive the stormy night with an unrelenting force of death hunting them down

Genre:Action | Sci-Fi | Thriller
Language:English  http://www.imdb.com/title/tt1093906/
Source:DVDR NTSC

General
Complete name :The.Rig.DvDRip.H264.Feel-Free
Format : MPEG-4
Format profile : Base Media
Codec ID : isom
File size : 748 MiB
Duration : 1h 34mn
Overall bit rate : 1 109 Kbps
Video #2
Codec ID : avc1
Codec ID/Info : Advanced Video Coding
Duration : 1h 34mn
Bit rate mode : Variable
Bit rate : 943 Kbps
Width : 640 pixels
Height : 352 pixels
Display aspect ratio : 16:9
Frame rate mode : Constant
Frame rate : 23.976 fps
Original frame rate : 23.000 fps
Resolution : 24 bits
Colorimetry : 4:2:0
Scan type : Progressive
Bits/(Pixel*Frame) : 0.175
Stream size : 635 MiB (85%)
Writing library : ?
Audio #1
ID : 1
Format : AAC
Format/Info : Advanced Audio Codec
Format version : Version 4
Format profile : LC
Format settings, SBR : No
Codec ID : 40
Duration : 1h 34mn
Bit rate mode : Constant
Bit rate : 160 Kbps
Channel(s) : 2 channels
Channel positions : L R
Sampling rate : 48.0 KHz
Resolution : 16 bits
Stream size : 108 MiB (14%)

